<?xml version="1.0" encoding="iso-8859-1"?>
<!-- Generator: Adobe Illustrator 18.0.0, SVG Export Plug-In . SVG Version: 6.00 Build 0)  -->
<!DOCTYPE svg PUBLIC "-//W3C//DTD SVG 1.1//EN" "http://www.w3.org/Graphics/SVG/1.1/DTD/svg11.dtd">
<svg version="1.1" id="Capa_1" xmlns="http://www.w3.org/2000/svg" xmlns:xlink="http://www.w3.org/1999/xlink" x="0px" y="0px"
	 viewBox="0 0 297 297" style="enable-background:new 0 0 297 297;" xml:space="preserve">
<path d="M249.001,0.455c-4.369,0-8.859,0.758-13.35,2.252c-0.209,0.068-0.426,0.149-0.629,0.233
	c-0.387,0.155-39.152,15.603-89.872,15.603c-29.764,0-57.743-5.248-83.161-15.6C57.194,0.99,52.337,0,47.553,0
	C28.422,0,13.996,15.845,13.996,36.856v120.418C13.996,233.014,75.591,297,148.499,297c72.909,0,134.505-63.986,134.505-139.726
	V36.856C283.004,15.765,268.703,0.455,249.001,0.455z M55.028,131.473c-2.06-4.12-0.39-9.131,3.729-11.191
	c12.726-6.363,23.53-8.537,32.362-8.537c18.463,0,28.256,9.507,28.848,10.1c3.313,3.203,3.374,8.337,0.168,11.672
	c-3.205,3.333-8.505,3.434-11.816,0.236c-0.559-0.521-14.049-12.575-42.101,1.451C62.097,137.262,57.088,135.594,55.028,131.473z
	 M205.575,211.645c-12.686,14.265-34.023,22.781-57.075,22.781c-23.053,0-44.389-8.517-57.075-22.781
	c-3.062-3.442-2.753-8.715,0.689-11.775c3.442-3.061,8.715-2.753,11.774,0.689c9.429,10.6,26.522,17.186,44.611,17.186
	c18.09,0,35.183-6.586,44.611-17.186c3.061-3.443,8.332-3.753,11.774-0.689C208.328,202.93,208.637,208.202,205.575,211.645z
	 M243.224,132.473c-2.06,4.121-7.068,5.789-11.19,3.73c-28.052-14.026-41.542-1.973-42.101-1.451
	c-3.312,3.197-8.611,3.097-11.816-0.236c-3.206-3.335-3.145-8.469,0.168-11.672c0.592-0.593,10.384-10.1,28.847-10.1
	c8.831,0,19.638,2.175,32.363,8.537C243.613,123.342,245.283,128.352,243.224,132.473z"/>
<g>
</g>
<g>
</g>
<g>
</g>
<g>
</g>
<g>
</g>
<g>
</g>
<g>
</g>
<g>
</g>
<g>
</g>
<g>
</g>
<g>
</g>
<g>
</g>
<g>
</g>
<g>
</g>
<g>
</g>
</svg>
